<svg width="221" height="210" viewBox="0 0 221 210" fill="none" xmlns="http://www.w3.org/2000/svg">
<g style="mix-blend-mode:color-burn" filter="url(#filter0_d)">
<path d="M8 101L92.1955 98.8117L11.2202 76.8771L93.3456 94.5725L20.6786 54.2699L95.5736 90.7373L35.7807 34.5989L98.7395 87.5468L55.5778 19.1002L102.644 85.2017L78.8258 8.74753L107.043 83.8493L104.064 4.19141L111.658 83.5745L129.707 5.71814L116.201 84.3946L154.142 13.2318L120.386 86.258L175.836 26.2602L123.949 89.0478L193.424 43.9848L126.668 92.5886L205.802 65.2919L128.37 96.6579L212.192 88.8427L128.95 101L212.192 113.157L128.37 105.342L205.802 136.708L126.668 109.411L193.424 158.015L123.949 112.952L175.836 175.74L120.386 115.742L154.142 188.768L116.201 117.605L129.707 196.282L111.658 118.426L104.064 197.809L107.043 118.151L78.8258 193.252L102.644 116.798L55.5778 182.9L98.7395 114.453L35.7807 167.401L95.5736 111.263L20.6786 147.73L93.3456 107.427L11.2202 125.123L92.1955 103.188L8 101Z" fill="#FFFEFE"/>
<path d="M7.94804 99.0007C6.86407 99.0288 6 99.9157 6 101C6 102.084 6.86407 102.971 7.94804 102.999L78.4765 104.832L10.6973 123.192C9.65082 123.476 9.02077 124.542 9.27678 125.595C9.53279 126.649 10.5816 127.306 11.6415 127.078L80.5699 112.226L19.7085 145.981C18.7607 146.507 18.4041 147.692 18.9043 148.653C19.4046 149.615 20.5797 150.003 21.5541 149.528L84.582 118.839L34.4118 165.943C33.622 166.684 33.5662 167.92 34.2858 168.73C35.0054 169.539 36.2389 169.629 37.068 168.932L90.1968 124.251L53.886 181.833C53.3085 182.749 53.5646 183.958 54.4639 184.561C55.3631 185.164 56.579 184.942 57.207 184.06L97.0102 128.159L76.9163 192.658C76.5944 193.691 77.1528 194.793 78.1763 195.144C79.1999 195.496 80.3173 194.969 80.698 193.956L104.584 130.381L102.065 197.734C102.025 198.815 102.852 199.732 103.931 199.804C105.011 199.876 105.952 199.076 106.055 197.999L112.481 130.83L127.758 196.734C128.003 197.788 129.041 198.456 130.102 198.242C131.162 198.029 131.861 197.01 131.678 195.943L120.27 129.488L152.378 189.709C152.887 190.664 154.064 191.041 155.033 190.559C156.002 190.077 156.412 188.912 155.958 187.929L127.519 126.407L174.367 177.097C175.102 177.893 176.337 177.958 177.152 177.246C177.968 176.533 178.068 175.301 177.378 174.466L133.787 121.717L192.336 159.693C193.245 160.283 194.458 160.041 195.072 159.148C195.686 158.255 195.477 157.036 194.601 156.398L138.647 115.659L205.15 138.599C206.175 138.952 207.295 138.425 207.675 137.41C208.055 136.395 207.558 135.261 206.553 134.854L141.731 108.597L212.006 115.149C213.086 115.249 214.049 114.471 214.178 113.395C214.306 112.318 213.554 111.335 212.481 111.178L142.789 101L212.481 90.8217C213.554 90.665 214.306 89.6819 214.178 88.6052C214.049 87.5286 213.086 86.7506 212.006 86.8513L141.731 93.4035L206.553 67.1456C207.558 66.7386 208.055 65.6053 207.675 64.5901C207.295 63.575 206.175 63.0477 205.15 63.4012L138.647 86.3409L194.601 45.6017C195.477 44.9639 195.686 43.7445 195.072 42.8517C194.458 41.9588 193.245 41.7172 192.336 42.3069L133.787 80.2831L177.378 27.5343C178.068 26.6994 177.968 25.4671 177.152 24.7544C176.337 24.0417 175.102 24.1074 174.367 24.9028L127.519 75.5931L155.958 14.071C156.412 13.0884 156.002 11.9228 155.033 11.4409C154.064 10.959 152.887 11.3357 152.378 12.2908L120.27 72.5115L131.678 6.0565C131.861 4.99004 131.162 3.97137 130.102 3.75757C129.041 3.54376 128.003 4.21237 127.758 5.26649L112.481 71.1702L106.055 4.00093C105.952 2.92387 105.011 2.12404 103.931 2.19582C102.852 2.26758 102.025 3.18492 102.065 4.26614L104.584 71.6186L80.698 8.0441C80.3173 7.03102 79.1999 6.50449 78.1763 6.8559C77.1528 7.20731 76.5944 8.30917 76.9163 9.34241L97.0102 73.8408L57.207 17.9401C56.579 17.0582 55.3631 16.8361 54.4639 17.4391C53.5646 18.0421 53.3085 19.2512 53.886 20.167L90.1968 77.7492L37.068 33.0683C36.2389 32.371 35.0054 32.4606 34.2858 33.2703C33.5662 34.08 33.622 35.3155 34.4118 36.057L84.582 83.1608L21.5541 52.4717C20.5797 51.9973 19.4046 52.3853 18.9043 53.3468C18.4041 54.3082 18.7607 55.4932 19.7085 56.0189L80.5699 89.7739L11.6415 74.922C10.5816 74.6936 9.53279 75.3513 9.27678 76.4048C9.02077 77.4584 9.65082 78.524 10.6973 78.8075L78.4765 97.1676L7.94804 99.0007Z" stroke="black" stroke-width="4" stroke-linejoin="round"/>
<path d="M7.94804 99.0007C6.86407 99.0288 6 99.9157 6 101C6 102.084 6.86407 102.971 7.94804 102.999L78.4765 104.832L10.6973 123.192C9.65082 123.476 9.02077 124.542 9.27678 125.595C9.53279 126.649 10.5816 127.306 11.6415 127.078L80.5699 112.226L19.7085 145.981C18.7607 146.507 18.4041 147.692 18.9043 148.653C19.4046 149.615 20.5797 150.003 21.5541 149.528L84.582 118.839L34.4118 165.943C33.622 166.684 33.5662 167.92 34.2858 168.73C35.0054 169.539 36.2389 169.629 37.068 168.932L90.1968 124.251L53.886 181.833C53.3085 182.749 53.5646 183.958 54.4639 184.561C55.3631 185.164 56.579 184.942 57.207 184.06L97.0102 128.159L76.9163 192.658C76.5944 193.691 77.1528 194.793 78.1763 195.144C79.1999 195.496 80.3173 194.969 80.698 193.956L104.584 130.381L102.065 197.734C102.025 198.815 102.852 199.732 103.931 199.804C105.011 199.876 105.952 199.076 106.055 197.999L112.481 130.83L127.758 196.734C128.003 197.788 129.041 198.456 130.102 198.242C131.162 198.029 131.861 197.01 131.678 195.943L120.27 129.488L152.378 189.709C152.887 190.664 154.064 191.041 155.033 190.559C156.002 190.077 156.412 188.912 155.958 187.929L127.519 126.407L174.367 177.097C175.102 177.893 176.337 177.958 177.152 177.246C177.968 176.533 178.068 175.301 177.378 174.466L133.787 121.717L192.336 159.693C193.245 160.283 194.458 160.041 195.072 159.148C195.686 158.255 195.477 157.036 194.601 156.398L138.647 115.659L205.15 138.599C206.175 138.952 207.295 138.425 207.675 137.41C208.055 136.395 207.558 135.261 206.553 134.854L141.731 108.597L212.006 115.149C213.086 115.249 214.049 114.471 214.178 113.395C214.306 112.318 213.554 111.335 212.481 111.178L142.789 101L212.481 90.8217C213.554 90.665 214.306 89.6819 214.178 88.6052C214.049 87.5286 213.086 86.7506 212.006 86.8513L141.731 93.4035L206.553 67.1456C207.558 66.7386 208.055 65.6053 207.675 64.5901C207.295 63.575 206.175 63.0477 205.15 63.4012L138.647 86.3409L194.601 45.6017C195.477 44.9639 195.686 43.7445 195.072 42.8517C194.458 41.9588 193.245 41.7172 192.336 42.3069L133.787 80.2831L177.378 27.5343C178.068 26.6994 177.968 25.4671 177.152 24.7544C176.337 24.0417 175.102 24.1074 174.367 24.9028L127.519 75.5931L155.958 14.071C156.412 13.0884 156.002 11.9228 155.033 11.4409C154.064 10.959 152.887 11.3357 152.378 12.2908L120.27 72.5115L131.678 6.0565C131.861 4.99004 131.162 3.97137 130.102 3.75757C129.041 3.54376 128.003 4.21237 127.758 5.26649L112.481 71.1702L106.055 4.00093C105.952 2.92387 105.011 2.12404 103.931 2.19582C102.852 2.26758 102.025 3.18492 102.065 4.26614L104.584 71.6186L80.698 8.0441C80.3173 7.03102 79.1999 6.50449 78.1763 6.8559C77.1528 7.20731 76.5944 8.30917 76.9163 9.34241L97.0102 73.8408L57.207 17.9401C56.579 17.0582 55.3631 16.8361 54.4639 17.4391C53.5646 18.0421 53.3085 19.2512 53.886 20.167L90.1968 77.7492L37.068 33.0683C36.2389 32.371 35.0054 32.4606 34.2858 33.2703C33.5662 34.08 33.622 35.3155 34.4118 36.057L84.582 83.1608L21.5541 52.4717C20.5797 51.9973 19.4046 52.3853 18.9043 53.3468C18.4041 54.3082 18.7607 55.4932 19.7085 56.0189L80.5699 89.7739L11.6415 74.922C10.5816 74.6936 9.53279 75.3513 9.27678 76.4048C9.02077 77.4584 9.65082 78.524 10.6973 78.8075L78.4765 97.1676L7.94804 99.0007Z" stroke="black" stroke-opacity="0.2" stroke-width="4" stroke-linejoin="round"/>
</g>
<defs>
<filter id="filter0_d" x="0" y="0.191269" width="220.192" height="209.617" filterUnits="userSpaceOnUse" color-interpolation-filters="sRGB">
<feFlood flood-opacity="0" result="BackgroundImageFix"/>
<feColorMatrix in="SourceAlpha" type="matrix" values="0 0 0 0 0 0 0 0 0 0 0 0 0 0 0 0 0 0 127 0"/>
<feOffset dy="4"/>
<feGaussianBlur stdDeviation="2"/>
<feColorMatrix type="matrix" values="0 0 0 0 0 0 0 0 0 0 0 0 0 0 0 0 0 0 0.25 0"/>
<feBlend mode="normal" in2="BackgroundImageFix" result="effect1_dropShadow"/>
<feBlend mode="normal" in="SourceGraphic" in2="effect1_dropShadow" result="shape"/>
</filter>
</defs>
</svg>
